HIERARCHY
ROOT Hips
{
	OFFSET 0.000000 89.005402 0.000000
	CHANNELS 6 Xposition Yposition Zposition Xrotation Yrotation Zrotation
	JOINT Spine
	{
		OFFSET 0.116900 10.681000 0.373400
		CHANNELS 3 Xrotation Yrotation Zrotation
		JOINT Spine1
		{
			OFFSET 0.000000 13.840401 0.053500
			CHANNELS 3 Xrotation Yrotation Zrotation
			JOINT Spine2
			{
				OFFSET 0.000000 14.712700 -0.366200
				CHANNELS 3 Xrotation Yrotation Zrotation
				JOINT Neck
				{
					OFFSET 0.000000 35.415497 -3.314200
					CHANNELS 3 Xrotation Yrotation Zrotation
					JOINT Head
					{
						OFFSET 0.000000 16.899200 1.218300
						CHANNELS 3 Xrotation Yrotation Zrotation
						JOINT HeadTop_End
						{
							OFFSET 0.000000 22.206207 2.192500
							CHANNELS 3 Xrotation Yrotation Zrotation
							End Site
							{
								OFFSET 0.000000 22.314178 0.000000
							}
						}
					}
				}
				JOINT LeftShoulder
				{
					OFFSET 12.896400 26.716293 -4.548400
					CHANNELS 3 Xrotation Yrotation Zrotation
					JOINT LeftArm
					{
						OFFSET 19.027000 -4.857010 -1.718400
						CHANNELS 3 Xrotation Yrotation Zrotation
						JOINT LeftForeArm
						{
							OFFSET 24.179897 0.000000 0.000000
							CHANNELS 3 Xrotation Yrotation Zrotation
							JOINT LeftHand
							{
								OFFSET 27.156403 0.000000 0.000000
								CHANNELS 3 Xrotation Yrotation Zrotation
								JOINT LeftHandIndex1
								{
									OFFSET 16.441200 0.000000 0.000000
									CHANNELS 3 Xrotation Yrotation Zrotation
									JOINT LeftHandIndex2
									{
										OFFSET 4.821899 0.000000 0.000000
										CHANNELS 3 Xrotation Yrotation Zrotation
										JOINT LeftHandIndex3
										{
											OFFSET 6.386497 0.000000 0.000000
											CHANNELS 3 Xrotation Yrotation Zrotation
											JOINT LeftHandIndex4
											{
												OFFSET 5.188988 0.000000 0.000000
												CHANNELS 3 Xrotation Yrotation Zrotation
												End Site
												{
													OFFSET -0.178703 5.185913 0.000177
												}
											}
										}
									}
								}
								JOINT LeftHandThumb1
								{
									OFFSET 6.534897 -5.032593 5.900300
									CHANNELS 3 Xrotation Yrotation Zrotation
									JOINT LeftHandThumb2
									{
										OFFSET 3.818176 -2.204422 2.204423
										CHANNELS 3 Xrotation Yrotation Zrotation
										JOINT LeftHandThumb3
										{
											OFFSET 3.252098 -1.877594 1.877601
											CHANNELS 3 Xrotation Yrotation Zrotation
											JOINT LeftHandThumb4
											{
												OFFSET 5.251778 -3.032120 3.032117
												CHANNELS 3 Xrotation Yrotation Zrotation
												End Site
												{
													OFFSET 0.000023 6.780014 0.000000
												}
											}
										}
									}
								}
							}
						}
					}
				}
				JOINT RightShoulder
				{
					OFFSET -12.896300 26.716293 -4.548400
					CHANNELS 3 Xrotation Yrotation Zrotation
					JOINT RightArm
					{
						OFFSET -19.027000 -4.857010 -1.718400
						CHANNELS 3 Xrotation Yrotation Zrotation
						JOINT RightForeArm
						{
							OFFSET -24.179897 0.000000 0.000000
							CHANNELS 3 Xrotation Yrotation Zrotation
							JOINT RightHand
							{
								OFFSET -27.156403 0.000000 0.000000
								CHANNELS 3 Xrotation Yrotation Zrotation
								JOINT RightHandThumb1
								{
									OFFSET -6.591202 -4.852203 5.988100
									CHANNELS 3 Xrotation Yrotation Zrotation
									JOINT RightHandThumb2
									{
										OFFSET -3.818176 -2.204422 2.204423
										CHANNELS 3 Xrotation Yrotation Zrotation
										JOINT RightHandThumb3
										{
											OFFSET -3.252098 -1.877594 1.877601
											CHANNELS 3 Xrotation Yrotation Zrotation
											JOINT RightHandThumb4
											{
												OFFSET -5.251778 -3.032120 3.032117
												CHANNELS 3 Xrotation Yrotation Zrotation
												End Site
												{
													OFFSET -0.000023 6.780014 0.000000
												}
											}
										}
									}
								}
								JOINT RightHandIndex1
								{
									OFFSET -16.029404 0.000000 0.000000
									CHANNELS 3 Xrotation Yrotation Zrotation
									JOINT RightHandIndex2
									{
										OFFSET -5.213303 0.000000 0.000000
										CHANNELS 3 Xrotation Yrotation Zrotation
										JOINT RightHandIndex3
										{
											OFFSET -6.386528 0.000000 0.000000
											CHANNELS 3 Xrotation Yrotation Zrotation
											JOINT RightHandIndex4
											{
												OFFSET -5.189026 0.000000 0.000000
												CHANNELS 3 Xrotation Yrotation Zrotation
												End Site
												{
													OFFSET 0.236702 5.183624 0.001972
												}
											}
										}
									}
								}
							}
						}
					}
				}
			}
		}
	}
	JOINT LeftUpLeg
	{
		OFFSET 14.073000 -7.904099 -1.463000
		CHANNELS 3 Xrotation Yrotation Zrotation
		JOINT LeftLeg
		{
			OFFSET -0.109806 -34.073280 4.093200
			CHANNELS 3 Xrotation Yrotation Zrotation
			JOINT LeftFoot
			{
				OFFSET 0.109806 -29.899420 -6.319000
				CHANNELS 3 Xrotation Yrotation Zrotation
				JOINT LeftToeBase
				{
					OFFSET 1.551100 -14.988700 20.535801
					CHANNELS 3 Xrotation Yrotation Zrotation
					JOINT LeftToe_End
					{
						OFFSET 0.221200 0.570800 13.248301
						CHANNELS 3 Xrotation Yrotation Zrotation
						End Site
						{
							OFFSET 0.000000 13.262435 0.000000
						}
					}
				}
			}
		}
	}
	JOINT RightUpLeg
	{
		OFFSET -13.839300 -7.904099 -1.463000
		CHANNELS 3 Xrotation Yrotation Zrotation
		JOINT RightLeg
		{
			OFFSET 0.109694 -34.073219 4.093300
			CHANNELS 3 Xrotation Yrotation Zrotation
			JOINT RightFoot
			{
				OFFSET -0.109694 -29.899384 -6.319200
				CHANNELS 3 Xrotation Yrotation Zrotation
				JOINT RightToeBase
				{
					OFFSET -1.551100 -14.988700 20.535801
					CHANNELS 3 Xrotation Yrotation Zrotation
					JOINT RightToe_End
					{
						OFFSET -0.221200 0.570900 13.248299
						CHANNELS 3 Xrotation Yrotation Zrotation
						End Site
						{
							OFFSET 0.000000 13.262440 0.000000
						}
					}
				}
			}
		}
	}
}
MOTION
Frames: 9
Frame Time: 0.033333
-0.163946 86.235153 1.409858 -2.308480 -2.199915 -0.571620 0.978158 -0.525843 0.152261 -0.198838 -0.703376 0.149736 -0.198424 -0.697645 0.168335 0.727205 -0.163021 1.167634 1.430360 0.408606 -0.116859 0.000000 -0.000000 0.000000 -0.442754 -8.303194 -13.706598 22.673066 -25.278885 -56.464429 -0.000005 -33.538261 -0.000004 3.576065 11.315287 -6.482382 -1.159052 -2.572725 -17.942958 0.348835 2.167822 -18.280381 0.001130 0.125320 -1.038502 -0.000000 0.000003 -0.000002 1.528246 10.257671 11.931480 1.037898 21.124517 -8.984714 2.851289 11.444030 0.538097 -0.000000 0.000001 0.000002 0.477841 3.845306 15.345314 21.048901 28.459769 52.609932 0.000011 32.229200 -0.000025 -1.402404 -12.452745 11.035652 -9.484562 -5.204906 -13.447979 11.349865 -25.306484 1.203258 -4.896231 10.390792 -1.856497 0.000002 -0.000000 -0.000000 -1.985855 1.634374 30.036194 0.168315 -1.523700 12.607138 0.403390 -2.338091 19.574998 0.000002 0.000001 0.000004 -0.411421 9.701234 5.580834 16.976295 3.212501 0.822916 -13.997679 1.082317 -6.230752 -0.000032 -0.000002 -0.000001 -0.000000 -0.000000 0.000000 1.622478 -9.851250 -3.283682 14.869358 2.810298 -1.781807 -14.220686 -0.936153 4.680107 -1.510652 -0.000003 0.000001 -0.000000 0.000000 0.000000 
-0.080427 86.213921 1.576381 -2.277812 -2.343897 -0.602730 1.001764 -0.509494 0.158282 -0.166101 -0.680565 0.160844 -0.165618 -0.674399 0.178823 0.720124 -0.160825 1.156856 1.331097 0.447368 -0.184175 -0.000000 0.000000 0.000000 -0.427198 -8.269744 -13.535462 22.500537 -24.723992 -56.594739 0.000008 -33.444458 0.000028 4.071524 11.001951 -6.087217 -1.100804 -2.560448 -17.322079 0.343062 2.150281 -18.127160 0.001131 0.125636 -1.041176 0.000002 0.000001 0.000001 1.423560 9.975263 11.758835 0.933876 20.858739 -8.962992 2.848536 11.436994 0.539679 0.000004 -0.000000 0.000000 0.472805 3.871142 15.422810 21.084043 28.499521 52.423225 0.000003 32.316681 -0.000000 -1.399417 -12.524323 11.072788 -9.427880 -5.334212 -13.443911 11.510202 -25.660568 1.244748 -4.873884 10.326227 -1.858538 -0.000000 -0.000001 -0.000001 -1.980525 1.611284 30.101610 0.167399 -1.519562 12.572505 0.407875 -2.350687 19.684638 -0.000001 0.000002 0.000001 -0.253314 9.751141 5.530795 17.001806 3.330518 0.810611 -14.206356 1.091944 -6.213546 -0.000002 0.000002 0.000001 -0.000000 0.000000 0.000000 1.716296 -9.893852 -3.349768 14.805101 2.882124 -1.794384 -14.281657 -0.951854 4.784560 -1.501513 -0.000003 -0.000000 -0.000000 0.000000 0.000000 
0.027946 86.185860 1.748360 -2.259321 -2.477654 -0.656219 1.020827 -0.495626 0.176786 -0.136471 -0.661091 0.172593 -0.136099 -0.654409 0.190003 0.727220 -0.151354 1.142711 1.290108 0.502907 -0.270275 -0.000000 -0.000000 -0.000000 -0.413610 -8.240120 -13.385773 22.850184 -24.685311 -56.404214 0.000011 -33.467937 0.000007 4.608515 10.834536 -6.067782 -1.100544 -2.608036 -17.155646 0.340743 2.143182 -18.065299 0.001233 0.131053 -1.085907 0.000003 -0.000002 0.000002 1.371074 9.847042 11.715507 0.816275 20.556226 -8.939175 2.836355 11.405856 0.546704 0.000002 0.000002 0.000002 0.468167 3.895701 15.473264 21.068475 28.620280 52.243072 0.000000 32.315599 -0.000002 -1.430245 -12.500383 11.166500 -9.407249 -5.382290 -13.429458 11.599977 -25.857956 1.268159 -4.850364 10.258296 -1.860678 -0.000001 0.000001 0.000001 -1.976055 1.595215 30.140973 0.166745 -1.516677 12.548336 0.409944 -2.356445 19.734908 0.000002 -0.000003 -0.000003 -0.120090 9.827892 5.498481 17.098523 3.354834 0.790967 -14.464206 1.097344 -6.157072 -0.000009 0.000001 0.000000 -0.000000 -0.000000 -0.000000 1.840697 -9.927332 -3.412830 14.727421 2.920991 -1.805759 -14.342187 -0.974852 4.918277 -1.490518 0.000003 0.000000 0.000000 0.000000 0.000000 
0.166542 86.149582 1.926129 -2.246422 -2.617208 -0.728267 1.035930 -0.488529 0.205595 -0.108069 -0.650578 0.185912 -0.107916 -0.643324 0.202944 0.719695 -0.130633 1.127323 1.307515 0.598484 -0.377015 -0.000000 0.000001 -0.000000 -0.405399 -8.222177 -13.294654 23.436669 -24.904601 -56.031341 -0.000004 -33.519208 -0.000000 4.536942 10.782336 -6.128494 -1.097681 -2.566637 -17.264637 0.340562 2.142660 -18.060839 0.001121 0.124738 -1.033638 -0.000001 0.000001 -0.000002 1.427115 9.986911 11.774141 0.715366 20.294755 -8.919460 2.814281 11.349496 0.559514 0.000003 0.000003 0.000000 0.464375 3.916868 15.489845 21.000796 28.819751 52.079571 -0.000004 32.259250 0.000015 -1.527319 -12.390151 11.250487 -9.445276 -5.297052 -13.415615 11.545520 -25.738250 1.253969 -4.851738 10.262217 -1.860593 -0.000000 0.000001 -0.000000 -1.975308 1.590669 30.156463 0.166311 -1.514676 12.531426 0.409848 -2.356164 19.732548 0.000001 0.000001 -0.000000 -0.007340 9.915345 5.466518 17.265571 3.360324 0.768910 -14.773716 1.100382 -6.074139 0.000007 0.000002 0.000001 0.000000 -0.000000 -0.000000 1.968493 -9.955464 -3.484481 14.655972 2.991517 -1.818403 -14.406204 -1.002805 5.071388 -1.475247 0.000003 -0.000000 -0.000000 0.000001 0.000000 
0.341470 86.103729 2.109115 -2.232027 -2.773235 -0.803042 1.050273 -0.487645 0.235353 -0.080531 -0.648009 0.196449 -0.080612 -0.640331 0.213314 0.689143 -0.098329 1.107564 1.327874 0.737054 -0.480734 -0.000000 -0.000001 0.000000 -0.403555 -8.218704 -13.272037 23.894807 -25.069926 -55.691938 0.000003 -33.583330 0.000012 4.159640 10.805061 -6.119771 -1.112707 -2.560636 -17.458547 0.341446 2.145365 -18.084210 0.001048 0.120295 -0.996906 -0.000001 0.000002 -0.000000 1.407715 9.935898 11.747122 0.626784 20.063611 -8.902771 2.797280 11.306019 0.569359 0.000003 0.000001 -0.000000 0.461893 3.932256 15.469011 20.883355 29.057476 51.949104 0.000002 32.216670 0.000002 -1.697794 -12.247119 11.262377 -9.534361 -5.095370 -13.405815 11.381345 -25.376151 1.211396 -4.896589 10.391823 -1.856475 -0.000001 -0.000001 -0.000002 -1.976508 1.587001 30.184594 0.165919 -1.512926 12.516759 0.408299 -2.351846 19.694719 0.000001 0.000003 0.000002 0.095276 10.005807 5.414765 17.489157 3.416039 0.721859 -15.129041 1.100103 -5.959778 -0.000279 0.000006 0.000001 -0.000000 0.000001 0.000000 2.061253 -10.017978 -3.601159 14.626736 3.175424 -1.818166 -14.487186 -1.033024 5.224112 -1.459696 0.000007 0.000002 -0.000000 0.000000 0.000000 
0.556297 86.049004 2.299576 -2.212948 -2.937042 -0.869120 1.065009 -0.488184 0.259789 -0.057023 -0.646856 0.201653 -0.057297 -0.638983 0.218442 0.648322 -0.061168 1.070395 1.311526 0.880864 -0.563985 -0.000000 -0.000000 0.000000 -0.407888 -8.229231 -13.316307 24.086324 -25.081727 -55.496571 0.000005 -33.667768 0.000001 4.044694 10.931397 -6.172737 -1.152443 -2.622347 -17.695965 0.343013 2.150125 -18.126009 0.001178 0.127310 -1.055096 0.000002 -0.000000 -0.000001 1.420915 9.963322 11.743385 0.557036 19.880473 -8.890332 2.785918 11.276891 0.575953 0.000003 0.000002 0.000001 0.461113 3.939395 15.414277 20.720858 29.263140 51.864557 -0.000007 32.264478 0.000021 -1.923352 -12.135467 11.185750 -9.669871 -4.788547 -13.388484 11.138198 -24.836050 1.149022 -4.983452 10.642810 -1.848456 -0.000001 -0.000000 -0.000001 -1.979817 1.575934 30.266860 0.165717 -1.512015 12.509080 0.405664 -2.344467 19.630443 0.000001 -0.000003 -0.000001 0.195335 10.099627 5.333352 17.750688 3.516156 0.632751 -15.521011 1.093122 -5.799319 -0.000010 -0.000000 -0.000002 0.000000 -0.000000 -0.000000 2.114251 -10.138174 -3.782639 14.643384 3.472673 -1.798008 -14.590143 -1.067716 5.377558 -1.454972 0.000007 -0.000000 -0.000000 -0.000000 0.000000 
0.813726 85.981552 2.499569 -2.183858 -3.083131 -0.931193 1.078428 -0.486091 0.280430 -0.038076 -0.641885 0.206593 -0.038474 -0.633827 0.223240 0.591757 -0.030500 1.010567 1.278501 0.980883 -0.635352 -0.000000 -0.000000 0.000000 -0.416679 -8.249528 -13.409554 24.139953 -25.082036 -55.409735 -0.000024 -33.777649 -0.000001 4.342060 11.183572 -6.370916 -1.191294 -2.693330 -17.884403 0.345778 2.158473 -18.198853 0.001233 0.130831 -1.084313 -0.000000 0.000001 0.000002 1.481616 10.105695 11.776169 0.536921 19.826883 -8.888015 2.778205 11.257132 0.580445 0.000002 -0.000001 -0.000002 0.462305 3.936414 15.332084 20.518839 29.389208 51.829798 0.000007 32.423249 -0.000016 -2.209235 -12.047232 11.046278 -9.917388 -4.227970 -13.351179 10.616514 -23.662089 1.018015 -5.102246 10.986448 -1.837335 0.000000 -0.000000 -0.000000 -1.998884 1.588423 30.369610 0.166033 -1.513399 12.520671 0.401909 -2.333954 19.538666 0.000001 0.000004 0.000001 0.268183 10.182976 5.220951 18.075853 3.625225 0.523254 -15.961350 1.079011 -5.595290 -0.000016 -0.000002 -0.000001 0.000000 -0.000000 0.000000 2.137540 -10.286952 -4.011233 14.703645 3.792602 -1.777159 -14.721296 -1.116238 5.562880 -1.467016 0.000004 -0.000001 0.000000 -0.000001 -0.000000 
1.116489 85.886818 2.709798 -2.138437 -3.196517 -1.000417 1.087783 -0.480500 0.298991 -0.018979 -0.632210 0.214493 -0.019443 -0.623893 0.230812 0.501034 -0.012507 0.947097 1.250731 1.027984 -0.708248 -0.000000 -0.000000 0.000000 -0.426521 -8.271445 -13.516138 24.217378 -25.211190 -55.369386 0.000001 -33.941440 -0.000000 4.891487 11.491434 -6.657715 -1.189665 -2.678346 -17.917623 0.348166 2.165809 -18.262966 0.001160 0.126899 -1.051570 0.000002 -0.000001 -0.000001 1.517843 10.179501 11.759193 0.545848 19.849465 -8.891683 2.780579 11.263231 0.579097 0.000002 0.000002 0.000002 0.465305 3.924255 15.223792 20.306135 29.458264 51.835818 -0.000013 32.621274 0.000035 -2.602705 -11.876823 10.890983 -10.401761 -3.125831 -13.292807 9.486252 -21.046079 0.747144 -5.262862 11.451657 -1.821916 0.000001 -0.000000 -0.000001 -2.058701 1.697172 30.353719 0.166508 -1.515554 12.538819 0.397890 -2.322616 19.439748 -0.000001 0.000000 0.000002 0.259020 10.245220 5.089927 18.557112 3.725091 0.412253 -16.498781 1.060719 -5.355957 -0.000034 0.000004 -0.000000 -0.000000 -0.000000 0.000000 2.108846 -10.430301 -4.270396 14.865806 4.068827 -1.772593 -14.916088 -1.186318 5.802445 -1.471421 -0.000002 -0.000001 0.000000 -0.000000 -0.000000 
1.467332 85.754402 2.935076 -2.078758 -3.274440 -1.081448 1.091442 -0.470664 0.313790 0.003565 -0.616834 0.220841 0.003063 -0.608394 0.236569 0.380401 -0.006817 0.904166 1.205840 1.039977 -0.774644 -0.000000 0.000000 -0.000000 -0.435668 -8.291115 -13.617062 24.383823 -25.470240 -55.337452 0.000006 -34.198522 0.000005 5.506808 11.723344 -6.977086 -1.182682 -2.647993 -17.944999 0.350684 2.173384 -18.329007 0.001121 0.124820 -1.034531 -0.000003 0.000001 0.000003 1.521366 10.176482 11.726521 0.582950 19.946048 -8.901181 2.799751 11.312312 0.567993 0.000003 0.000001 0.000001 0.469127 3.908723 15.086665 20.180480 29.562807 51.832844 0.000007 32.739583 0.000010 -3.119674 -11.512835 10.832819 -11.201950 -1.297569 -13.187130 7.759734 -16.853283 0.366582 -5.504781 12.153687 -1.798005 -0.000001 0.000000 -0.000001 -2.172278 1.953167 30.101528 0.165663 -1.511743 12.506832 0.395405 -2.315550 19.378155 0.000001 -0.000003 -0.000002 0.149539 10.302420 4.957491 19.245270 3.788961 0.283118 -17.166719 1.037836 -5.068019 -0.000037 0.000003 0.000001 -0.000000 0.000000 0.000000 2.015578 -10.575593 -4.568217 15.172217 4.308168 -1.777537 -15.201947 -1.276895 6.094853 -1.328265 0.000009 -0.000000 -0.000000 0.000001 0.000000 
